<svg xmlns="http://www.w3.org/2000/svg" viewBox="8 26 648 150" role="img" aria-label="HKAS Partners">
  <title>HKAS Partners — Horizontal Logo</title>
  <!-- H monogram graphic (oxblood) -->
  <g fill="#6B1F1F" transform="translate(-48.24,7.55) scale(0.86)">
    <path d="M 90 40 L 90 175 L 84 181 L 84 185 L 130 185 L 130 181 L 124 175 L 124 40 L 130 34 L 130 30 L 84 30 L 84 34 L 90 40 Z"/>
    <path d="M 186 40 L 186 175 L 180 181 L 180 185 L 226 185 L 226 181 L 220 175 L 220 40 L 226 34 L 226 30 L 180 30 L 180 34 L 186 40 Z"/>
    <rect x="124" y="103" width="62" height="4.5"/>
    <rect x="72" y="105.5" width="166" height="0.9" opacity="0.45"/>
  </g>
  <!-- Wordmark: HKAS (espresso) + Partners (oxblood italic, regular weight) -->
  <text x="180" y="122"
    font-family="'Cormorant Garamond','EB Garamond',Georgia,serif"
    font-size="72" font-weight="500" letter-spacing="2" fill="#2B1F18">HKAS</text>
  <text x="392" y="122"
    font-family="'Cormorant Garamond','EB Garamond',Georgia,serif"
    font-size="72" font-weight="400" font-style="italic" letter-spacing="1" fill="#6B1F1F">Partners</text>
</svg>
